<?xml version="1.0" encoding="utf-8"?>
<!-- Generator: Adobe Illustrator 24.1.2, SVG Export Plug-In . SVG Version: 6.00 Build 0)  -->
<svg version="1.1" id="Capa_1" xmlns="http://www.w3.org/2000/svg" xmlns:xlink="http://www.w3.org/1999/xlink" x="0px" y="0px"
	 viewBox="0 0 100 100" style="enable-background:new 0 0 100 100;" xml:space="preserve">
<style type="text/css">
	.st0{fill:#ECECEC;}
	.st1{fill:#EE523C;}
</style>
<ellipse class="st0" cx="50.9" cy="50" rx="49.1" ry="50"/>
<path class="st1" d="M72.7,74.6c-0.4,1.5-1.8,2.6-3.4,2.6H32.5c-1.6,0-3-1.1-3.4-2.6l-9.4-34.2h9.6l20.6-22c0.4-0.4,1-0.4,1.3,0.1
	c0.3,0.4,0.3,1.1-0.1,1.5L32.2,40.4h39.9L55.4,13.2c-0.3-0.5-0.2-1.1,0.2-1.5c0.4-0.3,1-0.3,1.3,0.2l17.5,28.4H82L72.7,74.6z"/>
<polygon class="st0" points="53.8,53 53.1,69 57.7,69 59.6,53 "/>
<polygon class="st0" points="30,53 34.2,69 38.8,69 35.8,53 "/>
<polygon class="st0" points="41.9,53 43.6,69 48.2,69 47.7,53 "/>
<polygon class="st0" points="65.7,53 62.5,69 67.1,69 71.5,53 "/>
</svg>
