<?xml version="1.0" encoding="utf-8"?>
<!-- Generator: Adobe Illustrator 24.1.2, SVG Export Plug-In . SVG Version: 6.00 Build 0)  -->
<svg version="1.1" id="Capa_1" xmlns="http://www.w3.org/2000/svg" xmlns:xlink="http://www.w3.org/1999/xlink" x="0px" y="0px"
	 viewBox="0 0 100 100" style="enable-background:new 0 0 100 100;" xml:space="preserve">
<style type="text/css">
	.st0{fill:#ECECEC;}
	.st1{fill:#EE523C;}
</style>
<circle class="st0" cx="51.1" cy="49.9" r="48.9"/>
<g>
	<path class="st1" d="M49.7,38.8l0-18.2h20.9v54.1H31.5v-36L49.7,38.8z M28.8,37.8v36.9v2.8h2.8h39.1h2.8v-2.8V20.6v-2.8h-2.8H48.9
		L28.8,37.8z"/>
	
		<rect x="35.5" y="46.9" transform="matrix(-1 -1.224647e-16 1.224647e-16 -1 101.1331 96.1602)" class="st1" width="30.2" height="2.4"/>
	
		<rect x="35.5" y="55.2" transform="matrix(-1 -1.224647e-16 1.224647e-16 -1 101.1331 112.897)" class="st1" width="30.2" height="2.4"/>
	
		<rect x="35.5" y="63.6" transform="matrix(-1 -1.224647e-16 1.224647e-16 -1 101.1331 129.6339)" class="st1" width="30.2" height="2.4"/>
</g>
</svg>
