<?xml version="1.0" encoding="utf-8"?>
<!-- Generator: Adobe Illustrator 24.1.2, SVG Export Plug-In . SVG Version: 6.00 Build 0)  -->
<svg version="1.1" id="Capa_1" xmlns="http://www.w3.org/2000/svg" xmlns:xlink="http://www.w3.org/1999/xlink" x="0px" y="0px"
	 viewBox="0 0 100 100" style="enable-background:new 0 0 100 100;" xml:space="preserve">
<style type="text/css">
	.st0{fill:#ECECEC;}
	.st1{fill:#EE523C;}
</style>
<circle class="st0" cx="49.8" cy="50.5" r="49.8"/>
<g>
	<g>
		<path class="st1" d="M57.7,19.4c0,0.1,0,0.3,0,0.4c0,0.1,0,0.3,0,0.4c0,0.2,0,0.4-0.1,0.6c0,0.2-0.1,0.4-0.1,0.6
			c-0.1,0.4-0.2,0.7-0.4,1.1c0,0,0,0.1-0.1,0.1c-0.1,0.2-0.2,0.3-0.3,0.5c0,0-0.1,0.1-0.1,0.1c-0.3,0.6-0.8,1.1-1.3,1.6
			c0,0-0.1,0.1-0.1,0.1c-0.1,0.1-0.2,0.1-0.2,0.2c-0.1,0-0.1,0.1-0.2,0.1c-0.1,0.1-0.3,0.2-0.4,0.3c0,0,0,0-0.1,0
			c-0.2,0.1-0.4,0.2-0.5,0.3c-0.2,0.1-0.3,0.2-0.5,0.3c0,0,0,0,0,0c-0.3,0.2-0.7,0.3-1.1,0.4c-0.1,0-0.2,0-0.2,0.1
			c-0.4,0.1-0.8,0.1-1.1,0.2c-0.1,0-0.3,0-0.4,0c-0.1,0-0.1,0-0.2,0c-0.1,0-0.1,0-0.2,0c-0.1,0-0.3,0-0.4,0c-0.4,0-0.8-0.1-1.1-0.2
			c-0.1,0-0.2,0-0.2-0.1c-0.4-0.1-0.7-0.2-1.1-0.4c0,0,0,0,0,0c-0.2-0.1-0.3-0.1-0.5-0.2c-0.2-0.1-0.4-0.2-0.6-0.4c0,0,0,0-0.1,0
			c-0.1-0.1-0.3-0.2-0.4-0.3c-0.1,0-0.1-0.1-0.2-0.1c-0.1-0.1-0.2-0.1-0.2-0.2c-0.1-0.1-0.2-0.2-0.3-0.3c-0.4-0.4-0.8-0.9-1.1-1.5
			c0,0-0.1-0.1-0.1-0.1c-0.1-0.2-0.2-0.3-0.3-0.5c0,0,0-0.1-0.1-0.1c-0.2-0.3-0.3-0.7-0.4-1.1c-0.1-0.2-0.1-0.4-0.1-0.6
			c0-0.2-0.1-0.4-0.1-0.6c0-0.1,0-0.2,0-0.4c0-0.1,0-0.3,0-0.4s0-0.3,0-0.4c0-0.1,0-0.2,0-0.2v0c0,0,0-0.1,0-0.1c0,0,0-0.1,0-0.1
			c0-0.1,0-0.3,0.1-0.4c0-0.2,0.1-0.4,0.1-0.6c0.1-0.4,0.2-0.7,0.4-1.1c0,0,0,0,0-0.1c0,0,0,0,0-0.1c0.1-0.2,0.2-0.3,0.3-0.5
			c0,0,0.1-0.1,0.1-0.1c0.3-0.6,0.8-1.1,1.3-1.6c0,0,0.1-0.1,0.1-0.1c0.1-0.1,0.2-0.1,0.2-0.2c0.1,0,0.1-0.1,0.2-0.1
			c0.1-0.1,0.3-0.2,0.4-0.3c0,0,0,0,0.1,0c0.3-0.2,0.7-0.4,1-0.6c0,0,0,0,0,0c0.3-0.2,0.7-0.3,1.1-0.4c0.1,0,0.2,0,0.2-0.1
			c0.4-0.1,0.8-0.1,1.1-0.2c0.1,0,0.3,0,0.4,0c0.1,0,0.1,0,0.2,0c0.1,0,0.1,0,0.2,0c0.1,0,0.3,0,0.4,0c0.4,0,0.8,0.1,1.1,0.2
			c0.1,0,0.2,0,0.2,0.1c0.4,0.1,0.7,0.2,1.1,0.4c0,0,0,0,0,0c0.4,0.2,0.7,0.4,1,0.6c0,0,0,0,0.1,0c0.1,0.1,0.3,0.2,0.4,0.3
			c0.1,0,0.1,0.1,0.2,0.1c0.1,0.1,0.2,0.1,0.2,0.2c0,0,0.1,0.1,0.1,0.1c0.5,0.5,0.9,1,1.3,1.6c0,0,0.1,0.1,0.1,0.1
			c0.1,0.2,0.2,0.3,0.3,0.5c0,0,0,0.1,0.1,0.1c0.2,0.3,0.3,0.7,0.4,1.1c0.1,0.2,0.1,0.4,0.1,0.6c0,0.2,0.1,0.4,0.1,0.6
			c0,0.1,0,0.1,0,0.2c0,0.1,0,0.1,0,0.2C57.7,19.1,57.7,19.2,57.7,19.4z"/>
		<path class="st1" d="M42.9,18.7C42.9,18.7,42.9,18.7,42.9,18.7C42.9,18.8,42.9,18.8,42.9,18.7L42.9,18.7
			C42.9,18.7,42.9,18.7,42.9,18.7z M42.8,18.7C42.8,18.7,42.8,18.7,42.8,18.7c0.1,0,0.1,0,0.1,0.1c0,0,0,0,0,0
			C42.8,18.7,42.8,18.7,42.8,18.7z"/>
		<path class="st1" d="M42.8,18.7c0,0,0.1,0,0.1,0.1C42.9,18.7,42.8,18.7,42.8,18.7C42.8,18.7,42.8,18.7,42.8,18.7z"/>
		<polygon class="st1" points="42.9,18.7 42.9,18.8 42.9,18.8 42.9,18.7 		"/>
	</g>
	<path class="st1" d="M62.5,33.8v7.6c0,0.2,0,0.2-0.1,0.2H38.2c-0.1,0-0.3,0-0.3-0.2v-7.6c0-0.1,0-0.2,0-0.4c0.1-1.8,0.8-3.5,2-4.7
		c0,0,0.1-0.1,0.1-0.1c0.6-0.6,1.2-1.1,2-1.5c0,0,0.1,0,0.1-0.1c0.2-0.1,0.4-0.2,0.6-0.3c0,0,0.1,0,0.1,0c0.2-0.1,0.4-0.1,0.6-0.2
		c0.2,0.2,0.5,0.4,0.7,0.7c0.7,0.5,1.4,1,2.2,1.3c0.1,0.1,0.3,0.1,0.4,0.2c0.6,0.2,1.1,0.4,1.7,0.5c0.6,0.1,1.2,0.2,1.8,0.2
		c0.7,0,1.4-0.1,2-0.2c0.1,0,0.2,0,0.2,0c0,0,0,0,0,0c0.1,0,0.2,0,0.4,0c0,0,0,0,0,0c0.3,0,0.6-0.3,0.9-0.4c0.1,0,0.2-0.2,0.4-0.2
		c0.6-0.3,1.2-0.6,1.7-1c0,0,0,0,0,0c0.1,0,0.1-0.1,0.2-0.1c0.4-0.3,0.7-0.5,1-0.8c3,0.7,5.3,3.5,5.4,6.8
		C62.5,33.6,62.5,33.7,62.5,33.8z"/>
</g>
<g>
	<g>
		<path class="st1" d="M36.6,54.2c0,0.1,0,0.3,0,0.4c0,0.1,0,0.3,0,0.4c0,0.2,0,0.4-0.1,0.6c0,0.2-0.1,0.4-0.1,0.6
			c-0.1,0.4-0.2,0.7-0.4,1.1c0,0,0,0.1-0.1,0.1c-0.1,0.2-0.2,0.3-0.3,0.5c0,0-0.1,0.1-0.1,0.1c-0.3,0.6-0.8,1.1-1.3,1.6
			c0,0-0.1,0.1-0.1,0.1c-0.1,0.1-0.2,0.1-0.2,0.2c-0.1,0-0.1,0.1-0.2,0.1c-0.1,0.1-0.3,0.2-0.4,0.3c0,0,0,0-0.1,0
			c-0.2,0.1-0.4,0.2-0.5,0.3c-0.2,0.1-0.3,0.2-0.5,0.3c0,0,0,0,0,0c-0.3,0.2-0.7,0.3-1.1,0.4c-0.1,0-0.2,0-0.2,0.1
			c-0.4,0.1-0.8,0.1-1.1,0.2c-0.1,0-0.3,0-0.4,0c-0.1,0-0.1,0-0.2,0c-0.1,0-0.1,0-0.2,0c-0.1,0-0.3,0-0.4,0c-0.4,0-0.8-0.1-1.1-0.2
			c-0.1,0-0.2,0-0.2-0.1c-0.4-0.1-0.7-0.2-1.1-0.4c0,0,0,0,0,0c-0.2-0.1-0.3-0.1-0.5-0.2c-0.2-0.1-0.4-0.2-0.6-0.4c0,0,0,0-0.1,0
			c-0.1-0.1-0.3-0.2-0.4-0.3c-0.1,0-0.1-0.1-0.2-0.1c-0.1-0.1-0.2-0.1-0.2-0.2c-0.1-0.1-0.2-0.2-0.3-0.3c-0.4-0.4-0.8-0.9-1.1-1.5
			c0,0-0.1-0.1-0.1-0.1c-0.1-0.2-0.2-0.3-0.3-0.5c0,0,0-0.1-0.1-0.1c-0.2-0.3-0.3-0.7-0.4-1.1c-0.1-0.2-0.1-0.4-0.1-0.6
			c0-0.2-0.1-0.4-0.1-0.6c0-0.1,0-0.2,0-0.4c0-0.1,0-0.3,0-0.4c0-0.1,0-0.3,0-0.4c0-0.1,0-0.2,0-0.2v0c0,0,0-0.1,0-0.1
			c0,0,0-0.1,0-0.1c0-0.1,0-0.3,0.1-0.4c0-0.2,0.1-0.4,0.1-0.6c0.1-0.4,0.2-0.7,0.4-1.1c0,0,0,0,0-0.1s0,0,0-0.1
			c0.1-0.2,0.2-0.3,0.3-0.5c0,0,0.1-0.1,0.1-0.1c0.3-0.6,0.8-1.1,1.3-1.6c0,0,0.1-0.1,0.1-0.1c0.1-0.1,0.2-0.1,0.2-0.2
			c0.1,0,0.1-0.1,0.2-0.1c0.1-0.1,0.3-0.2,0.4-0.3c0,0,0,0,0.1,0c0.3-0.2,0.7-0.4,1-0.6c0,0,0,0,0,0c0.3-0.2,0.7-0.3,1.1-0.4
			c0.1,0,0.2,0,0.2-0.1c0.4-0.1,0.8-0.1,1.1-0.2c0.1,0,0.3,0,0.4,0c0.1,0,0.1,0,0.2,0c0.1,0,0.1,0,0.2,0c0.1,0,0.3,0,0.4,0
			c0.4,0,0.8,0.1,1.1,0.2c0.1,0,0.2,0,0.2,0.1c0.4,0.1,0.7,0.2,1.1,0.4c0,0,0,0,0,0c0.4,0.2,0.7,0.4,1,0.6c0,0,0,0,0.1,0
			c0.1,0.1,0.3,0.2,0.4,0.3c0.1,0,0.1,0.1,0.2,0.1c0.1,0.1,0.2,0.1,0.2,0.2c0,0,0.1,0.1,0.1,0.1c0.5,0.5,0.9,1,1.3,1.6
			c0,0,0.1,0.1,0.1,0.1c0.1,0.2,0.2,0.3,0.3,0.5c0,0,0,0.1,0.1,0.1c0.2,0.3,0.3,0.7,0.4,1.1c0.1,0.2,0.1,0.4,0.1,0.6
			c0,0.2,0.1,0.4,0.1,0.6c0,0.1,0,0.1,0,0.2c0,0.1,0,0.1,0,0.2C36.6,53.9,36.6,54.1,36.6,54.2z"/>
		<path class="st1" d="M21.8,53.6C21.8,53.6,21.8,53.6,21.8,53.6C21.8,53.6,21.8,53.6,21.8,53.6L21.8,53.6
			C21.8,53.6,21.8,53.6,21.8,53.6z M21.7,53.5C21.7,53.5,21.7,53.5,21.7,53.5c0.1,0,0.1,0,0.1,0.1c0,0,0,0,0,0
			C21.8,53.6,21.7,53.5,21.7,53.5z"/>
		<path class="st1" d="M21.7,53.5c0,0,0.1,0,0.1,0.1C21.8,53.6,21.7,53.5,21.7,53.5C21.7,53.5,21.7,53.5,21.7,53.5z"/>
		<polygon class="st1" points="21.8,53.6 21.8,53.6 21.8,53.6 21.8,53.6 		"/>
	</g>
	<path class="st1" d="M41.5,68.7v7.6c0,0.2-0.1,0.2-0.3,0.2H17.1c-0.1,0-0.3,0-0.3-0.2v-7.6c0-0.1,0-0.2,0-0.4
		c0.1-1.8,0.8-3.5,2-4.7c0,0,0.1-0.1,0.1-0.1c0.6-0.6,1.2-1.1,2-1.5c0,0,0.1,0,0.1-0.1c0.2-0.1,0.4-0.2,0.6-0.3c0,0,0.1,0,0.1,0
		c0.2-0.1,0.4-0.1,0.6-0.2c0.2,0.2,0.5,0.4,0.7,0.7c0.7,0.5,1.4,1,2.2,1.3c0.1,0.1,0.3,0.1,0.4,0.2c0.6,0.2,1.1,0.4,1.7,0.5
		c0.6,0.1,1.2,0.2,1.8,0.2c0.7,0,1.4-0.1,2-0.2c0.1,0,0.2-0.1,0.2-0.1c0,0,0,0,0,0c0.1,0,0.2,0,0.4,0c0,0,0,0,0,0
		c0.3,0,0.6-0.2,0.9-0.4c0.1,0,0.2-0.2,0.4-0.2c0.6-0.3,1.2-0.6,1.7-1c0,0,0,0,0,0c0.1,0,0.1,0,0.2-0.1c0.4-0.3,0.7-0.5,1-0.8
		c3,0.7,5.3,3.5,5.5,6.8C41.5,68.4,41.5,68.5,41.5,68.7z"/>
</g>
<g>
	<g>
		<path class="st1" d="M78.1,54.1c0,0.1,0,0.3,0,0.4c0,0.1,0,0.3,0,0.4c0,0.2,0,0.4-0.1,0.6c0,0.2-0.1,0.4-0.1,0.6
			c-0.1,0.4-0.2,0.7-0.4,1.1c0,0,0,0.1-0.1,0.1c-0.1,0.2-0.2,0.3-0.3,0.5c0,0-0.1,0.1-0.1,0.1c-0.3,0.6-0.8,1.1-1.3,1.6
			c0,0-0.1,0.1-0.1,0.1c-0.1,0.1-0.2,0.1-0.2,0.2c-0.1,0-0.1,0.1-0.2,0.1c-0.1,0.1-0.3,0.2-0.4,0.3c0,0,0,0-0.1,0
			c-0.2,0.1-0.4,0.2-0.5,0.3c-0.2,0.1-0.3,0.2-0.5,0.3c0,0,0,0,0,0c-0.3,0.2-0.7,0.3-1.1,0.4c-0.1,0-0.2,0-0.2,0.1
			c-0.4,0.1-0.8,0.1-1.1,0.2c-0.1,0-0.3,0-0.4,0c-0.1,0-0.1,0-0.2,0c-0.1,0-0.1,0-0.2,0c-0.1,0-0.3,0-0.4,0c-0.4,0-0.8-0.1-1.1-0.2
			c-0.1,0-0.2,0-0.2-0.1c-0.4-0.1-0.7-0.2-1.1-0.4c0,0,0,0,0,0c-0.2-0.1-0.3-0.1-0.5-0.2c-0.2-0.1-0.4-0.2-0.6-0.4c0,0,0,0-0.1,0
			c-0.1-0.1-0.3-0.2-0.4-0.3c-0.1,0-0.1-0.1-0.2-0.1c-0.1-0.1-0.2-0.1-0.2-0.2c-0.1-0.1-0.2-0.2-0.3-0.3c-0.4-0.4-0.8-0.9-1.1-1.5
			c0,0-0.1-0.1-0.1-0.1c-0.1-0.2-0.2-0.3-0.3-0.5c0,0,0-0.1-0.1-0.1c-0.2-0.3-0.3-0.7-0.4-1.1c-0.1-0.2-0.1-0.4-0.1-0.6
			c0-0.2-0.1-0.4-0.1-0.6c0-0.1,0-0.2,0-0.4c0-0.1,0-0.3,0-0.4c0-0.1-0.1-0.3,0-0.4c0-0.1,0-0.2,0-0.2v0c0,0,0.1-0.1,0.1-0.1
			c0,0,0-0.1,0-0.1c0-0.1,0.1-0.3,0.1-0.4c0-0.2,0.1-0.4,0.1-0.6c0.1-0.4,0.2-0.7,0.4-1.1c0,0,0,0,0-0.1c0,0,0,0,0-0.1
			c0.1-0.2,0.2-0.3,0.3-0.5c0,0,0.1-0.1,0.1-0.1c0.3-0.6,0.8-1.1,1.3-1.6c0,0,0.1-0.1,0.1-0.1c0.1-0.1,0.2-0.1,0.2-0.2
			c0.1,0,0.1-0.1,0.2-0.1c0.1-0.1,0.3-0.2,0.4-0.3c0,0,0,0,0.1,0c0.3-0.2,0.7-0.4,1-0.6c0,0,0,0,0,0c0.3-0.2,0.7-0.3,1.1-0.4
			c0.1,0,0.2,0,0.2-0.1c0.4-0.1,0.8-0.1,1.1-0.2c0.1,0,0.3,0,0.4,0c0.1,0,0.1,0,0.2,0c0.1,0,0.1,0,0.2,0c0.1,0,0.3,0,0.4,0
			c0.4,0,0.8,0.1,1.1,0.2c0.1,0,0.2,0,0.2,0.1c0.4,0.1,0.7,0.2,1.1,0.4c0,0,0,0,0,0c0.4,0.2,0.7,0.4,1,0.6c0,0,0,0,0.1,0
			c0.1,0.1,0.3,0.2,0.4,0.3c0.1,0,0.1,0.1,0.2,0.1c0.1,0.1,0.2,0.1,0.2,0.2c0,0,0.1,0.1,0.1,0.1c0.5,0.5,0.9,1,1.3,1.6
			c0,0,0.1,0.1,0.1,0.1c0.1,0.2,0.2,0.3,0.3,0.5c0,0,0,0.1,0.1,0.1c0.2,0.3,0.3,0.7,0.4,1.1c0.1,0.2,0.1,0.4,0.1,0.6
			c0,0.2,0.1,0.4,0.1,0.6c0,0.1,0,0.1,0,0.2c0,0.1,0,0.1,0,0.2C78.1,53.8,78.1,53.9,78.1,54.1z"/>
		<path class="st1" d="M63.4,53.5C63.4,53.5,63.4,53.5,63.4,53.5C63.4,53.5,63.4,53.5,63.4,53.5L63.4,53.5
			C63.4,53.5,63.4,53.5,63.4,53.5z M63.3,53.4C63.3,53.4,63.3,53.4,63.3,53.4c0.1,0,0.1,0,0.1,0.1c0,0,0,0,0,0
			C63.3,53.4,63.3,53.4,63.3,53.4z"/>
		<path class="st1" d="M63.3,53.4c0,0,0.1,0,0.1,0.1C63.3,53.4,63.3,53.4,63.3,53.4C63.3,53.4,63.3,53.4,63.3,53.4z"/>
		<polygon class="st1" points="63.4,53.5 63.4,53.5 63.4,53.5 63.4,53.5 		"/>
	</g>
	<path class="st1" d="M83,68.5v7.6c0,0.2,0,0.3-0.2,0.3H58.7c-0.1,0-0.2-0.1-0.2-0.3v-7.6c0-0.1,0-0.2,0-0.4
		c0.1-1.8,0.8-3.5,1.9-4.7c0,0,0.1-0.1,0.1-0.1c0.6-0.6,1.2-1.1,2-1.5c0,0,0.1,0,0.1-0.1c0.2-0.1,0.4-0.2,0.6-0.3c0,0,0.1,0,0.1,0
		c0.2-0.1,0.4-0.1,0.6-0.2c0.2,0.2,0.5,0.4,0.7,0.7c0.7,0.5,1.4,1,2.2,1.3c0.1,0.1,0.3,0.1,0.4,0.2c0.6,0.2,1.1,0.4,1.7,0.5
		c0.6,0.1,1.2,0.2,1.8,0.2c0.7,0,1.4-0.1,2-0.2c0.1,0,0.2-0.1,0.2-0.1c0,0,0,0,0,0c0.1,0,0.2,0,0.4,0c0,0,0,0,0,0
		c0.3,0,0.6-0.2,0.9-0.3c0.1,0,0.2-0.1,0.4-0.1c0.6-0.3,1.2-0.5,1.7-0.9c0,0,0,0,0,0c0.1,0,0.1-0.1,0.2-0.2c0.4-0.3,0.7-0.6,1-0.9
		c3,0.7,5.3,3.5,5.5,6.8C83,68.3,83,68.4,83,68.5z"/>
</g>
<path class="st1" d="M50.1,43.5h-0.4c-0.7,0-1.2,0.6-1.2,1.2V55c0,0.7,0.6,1.2,1.2,1.2h0.4c0.7,0,1.2-0.6,1.2-1.2V44.7
	C51.3,44,50.8,43.5,50.1,43.5z"/>
<path class="st1" d="M48.9,53.6l-0.2,0.3c-0.4,0.5-0.3,1.3,0.2,1.8l7.9,6.3c0.5,0.4,1.3,0.3,1.8-0.2l0.2-0.3
	c0.4-0.5,0.3-1.3-0.2-1.8l-7.9-6.3C50.1,53,49.3,53.1,48.9,53.6z"/>
<path class="st1" d="M40.7,61.8l-0.2-0.3c-0.4-0.5-0.3-1.3,0.2-1.8l7.9-6.3c0.5-0.4,1.3-0.3,1.8,0.2l0.2,0.3
	c0.4,0.5,0.3,1.3-0.2,1.8L42.5,62C41.9,62.5,41.1,62.4,40.7,61.8z"/>
</svg>
